<?xml version="1.0" encoding="UTF-8"?>
<svg xmlns="http://www.w3.org/2000/svg" viewBox="0 0 12 19" fill="none" class="header-md:hidden h-6 w-auto cursor-pointer"><path d="M9.6798 3.40312C9.6798 4.89105 8.51332 6.1047 7.06847 6.1047H4.45715L6.29966 8.01089H8.91098C9.58038 8.01089 10.2498 8.27145 10.7535 8.79942C11.7742 9.85537 11.7742 11.5627 10.7535 12.6187L6.30628 17.2264C5.83572 17.7133 5.17957 18.015 4.46378 18.015C3.02556 18.015 1.85245 16.8082 1.85245 15.3134C1.85245 13.8255 3.01893 12.6118 4.46378 12.6118H7.0751L5.21934 10.7125H2.60801C1.93861 10.7125 1.26921 10.4519 0.765503 9.92394C-0.255168 8.86799 -0.255168 7.16065 0.765503 6.1047L5.21934 1.49693C5.69653 1.00324 6.34605 0.701538 7.06847 0.701538C8.50669 0.701538 9.6798 1.90834 9.6798 3.40312Z" fill="#65D80D"></path></svg>