<svg width="32" height="32" viewBox="0 0 32 32" fill="none" xmlns="http://www.w3.org/2000/svg">
    <path d="M31.288 7.107A8.833 8.833 0 0 0 24.893.712a55.899 55.899 0 0 0-17.786 0A8.833 8.833 0 0 0 .712 7.107a55.899 55.899 0 0 0 0 17.786 8.833 8.833 0 0 0 6.395 6.395c5.895.95 11.89.95 17.786 0a8.833 8.833 0 0 0 6.395-6.395c.95-5.895.95-11.89 0-17.786Z" fill="#0054A6"/>
    <path d="M10.019 22.452a17.5 17.5 0 0 0 5.498-5.449 2.194 2.194 0 0 0 0-2.328c-1.436-2.18-3.27-4.013-5.498-5.4-1.09-.693-2.527-.297-3.22.793-.05 0-.05.05-.05.05a2.279 2.279 0 0 0 .842 3.12c1.14.743 2.13 1.585 3.022 2.626a11.782 11.782 0 0 1-3.022 2.625c-.743.396-1.189 1.189-1.189 2.031a2.398 2.398 0 0 0 3.617 1.932Z" fill="white"/>
    <path d="M17.746 21.808h5.647c1.04 0 1.883-.495 1.883-1.486 0-.99-.843-1.486-1.883-1.486h-5.647c-1.04 0-1.882.495-1.882 1.486 0 .99.842 1.486 1.882 1.486Z" fill="white"/>
</svg>
