<svg version="1.1" xmlns="http://www.w3.org/2000/svg" xmlns:xlink="http://www.w3.org/1999/xlink" preserveAspectRatio="xMidYMid" viewBox="394.33 0 117.5 124">
	<g>
		<path d="M507.457991,69.8026667 L464.204231,84.4049067 L464.204231,85.31968 C464.204231,90.0676267 460.499627,92.4626489 457.061262,92.4626489 C453.622898,92.4626489 449.917156,90.0676267 449.917156,85.31968 L449.917156,79.6603733 C449.917156,76.6316089 451.882098,74.0511289 454.316942,73.0646756 L492.174222,61.8780444 L454.269156,50.6697956 C452.000427,49.6548978 449.917156,47.1802311 449.917156,44.0945778 L449.917156,38.4364089 C449.917156,33.6884622 453.622898,31.2923022 457.061262,31.2923022 C460.499627,31.2923022 464.204231,33.6873244 464.204231,38.4364089 L464.204231,39.3500444 L507.457991,53.9511467 C509.799538,54.9603556 511.822507,56.7682844 511.822507,61.85984 C511.822507,66.9775644 509.805227,68.7911822 507.457991,69.8026667 L507.457991,69.8026667 Z M410.385067,103.410347 L410.385067,75.9808 C410.385067,63.4993778 419.984498,62.5390933 424.784782,62.1283556 C419.98336,61.4411378 410.385067,60.4819911 410.385067,48.0028444 L410.385067,20.5710222 C410.385067,14.8115911 407.779556,12.3426133 403.939556,12.3426133 L400.509156,12.3426133 C396.942222,12.3426133 394.337849,10.4231822 394.337849,6.17130667 C394.337849,2.19477333 396.942222,8.08439735e-15 400.509156,8.08439735e-15 L410.659271,8.08439735e-15 C422.588871,8.08439735e-15 428.489387,5.62289778 428.489387,18.2408533 L428.489387,46.2199467 C428.489387,54.5848889 432.052907,55.4097778 435.482169,55.4097778 C440.009387,55.4097778 442.066489,58.6990933 442.066489,61.9918222 C442.066489,65.2834133 440.008249,68.5761422 435.482169,68.5761422 C432.051769,68.5761422 428.489387,69.3987556 428.489387,77.7648356 L428.489387,105.742791 C428.489387,118.361884 422.588871,123.984782 410.659271,123.984782 L400.509156,123.984782 C396.942222,123.984782 394.337849,121.788871 394.337849,117.812338 C394.337849,113.560462 396.942222,111.638756 400.509156,111.638756 L403.939556,111.638756 C407.779556,111.638756 410.385067,109.170916 410.385067,103.410347 L410.385067,103.410347 Z" fill="#00B4F0"/>
	</g>
</svg>